<svg xmlns="http://www.w3.org/2000/svg" id="Capa_1" data-name="Capa 1" viewBox="0 0 1000 1000"><defs><style>      .cls-1 {        fill: #fff;      }      .cls-2 {        fill: #36a9e1;      }    </style></defs><path class="cls-2" d="M554.99,951.41c-218.15,34.38-413.79-140.35-405.36-358.81,5.17-133.89,148.99-313.75,235.51-414.36l115.21-133.99,166.15,196.52c69.07,81.69,174.87,232.88,183.14,340.67,13.73,178.98-115.53,341.74-294.65,369.97Z"></path><path class="cls-1" d="M537.34,649.25l-.11,167.56c0,4.51-4.72,8.99-8.85,9l-68.09.04c-3.26,0-8.57-4.29-8.58-8l-.11-168.12-52.64-.06c-3.44,0-7.95-4.49-7.96-8.16l-.06-66.04c0-2.36,3.75-7.75,6.16-7.76l54.2-.15.93-55.35c.83-49.31,39.28-89.63,87.52-90.09l61.87-.58c2.93-.03,7.42,4.79,7.42,7.66l-.03,61.97c0,4.68-5.16,7.98-9.67,8.08l-45.75,1c-9.7.21-16.42,8.67-16.41,18.18l.06,47.74,60.11.05c4.95,0,9.67,4.46,9.68,9.44l.06,65.78c-.92,3.74-4.16,6.93-7.85,7.87l-61.91-.05Z"></path></svg>