<svg xmlns="http://www.w3.org/2000/svg" id="Capa_1" data-name="Capa 1" viewBox="0 0 1000 1000"><defs><style>      .cls-1 {        fill: #fff;      }    </style></defs><path class="cls-1" d="M525.26,911.74l-1.12-168.47-37.24-1.23c-20.07-.67-34.49-16.19-35.28-34.97-.71-16.92,12.16-36.17,32.17-36.64l40.3-.96.46-144.88,97.67.29c7.72,42.34,42.36,71.08,82.18,71.86,41.54.81,77.68-27.82,85.8-71.84l121.24-.26c-11.86,204.45-174.32,373.12-386.17,387.09Z"></path><path class="cls-1" d="M476.13,330l-.95,145.59-97.35-.45c-7.58-44.52-43.78-72.46-84.98-72.11-41.51.35-75.64,29.75-83.6,72.59l-120.85-.58c12.77-209.01,178.17-373.93,386.94-386.77l.74,169.02,43.28,1.56c20.08.73,30.98,23.08,28.77,39.13-2.66,19.29-18.15,32.23-38.29,32.15l-33.7-.13Z"></path><path class="cls-1" d="M669.99,511.35l-.48-35.66-145.1-.44.14-97.49c44.56-8.17,72.64-44.04,72.32-85.47-.32-41.29-30.13-75.2-72.53-83.27v-120.59c206.9,11.45,374.79,176.7,387.26,386.67l-168.41.59-.92,37.03c-.5,20.11-16.53,35.03-34.74,35.58-19.33.58-37.24-14.11-37.55-36.95Z"></path><path class="cls-1" d="M475.58,790.3l.15,121.04c-206.79-11.37-374.79-177.77-387.24-386.39l168.29-.43.41-31.24c.3-23.02,13.01-41.11,35.29-41.8,21.34-.66,37.58,15.47,37.86,38.44l.42,34.7,144.91.09-.17,97.09c-43.51,8.08-71.54,42.12-72.28,82.24s27.22,77.88,72.36,86.25Z"></path></svg>