<svg xmlns="http://www.w3.org/2000/svg" id="Capa_1" data-name="Capa 1" viewBox="0 0 1000 1000"><defs><style>      .cls-1 {        fill: #fff;      }    </style></defs><path class="cls-1" d="M629.97,162.98c0-57.77-46.83-104.6-104.6-104.6s-104.6,46.83-104.6,104.6,46.83,104.6,104.6,104.6,104.6-46.83,104.6-104.6ZM660.08,423.38c18.42-.04,21.29-22.86,21.66-33.89,1.53-45.62-9.49-87.55-41.16-121.05-62.51,69.51-167.49,68.32-231,.02-32.35,34.03-42.92,78.29-41.08,124.24.69,17.25,9.05,31.26,28.41,31.22l263.17-.54ZM711.86,664.67c-8.9,10.9-26.9,18.05-38.88,18.06l-121.21.13c-16.55.02-26.89-14.92-25.28-29.27s13.1-22.57,28.66-22.58l100.47-.08c30.01-.02,52.21-25.43,51.45-53.5-.71-26.25-22.34-49.83-51.43-49.87l-135.25-.17c-4.99,0-16.05-4.11-19.67-7.7-58.59-58.34-145.57-68.99-218.64-30.93-25.98,15.78-48.93,33.15-69.98,55.01l146.86,294.51,303.1-.59c51.6-.1,95.09-29.46,123.61-69.92l147.28-211.24c16.06-23.03,9.79-53.55-10.45-69.69-19.75-15.75-52.52-15.83-70.2,5.82l-140.45,172.01ZM252.31,938.4l31.29-15.56c27.46-13.65,37.47-44.74,23.64-72.44l-130.88-262.12c-12.49-25-42.65-35.91-67.57-23.86l-37.34,18.06c-10.61,5.13-17.21,20.89-11.26,32.79l156.13,312.28c6.91,13.82,22.59,17.51,35.99,10.85Z"></path><path class="cls-1" d="M711.86,664.67l140.45-172.01c17.68-21.65,50.45-21.56,70.2-5.82,20.24,16.14,26.51,46.66,10.45,69.69l-147.28,211.24c-28.52,40.47-72.01,69.82-123.61,69.92l-303.1.59-146.86-294.51c21.05-21.87,44-39.23,69.98-55.01,73.07-38.06,160.05-27.41,218.64,30.93,3.61,3.6,14.68,7.7,19.67,7.7l135.25.17c29.08.04,50.72,23.61,51.43,49.87.75,28.07-21.44,53.48-51.45,53.5l-100.47.08c-15.55.01-27.09,8.54-28.66,22.58s8.74,29.29,25.28,29.27l121.21-.13c11.98-.01,29.97-7.16,38.88-18.06Z"></path><path class="cls-1" d="M252.31,938.4c-13.4,6.66-29.08,2.96-35.99-10.85L60.19,615.27c-5.95-11.91.64-27.66,11.26-32.79l37.34-18.06c24.92-12.05,55.08-1.14,67.57,23.86l130.88,262.12c13.83,27.7,3.82,58.79-23.64,72.44l-31.29,15.56Z"></path><path class="cls-1" d="M660.08,423.38l-263.17.54c-19.35.04-27.71-13.97-28.41-31.22-1.84-45.95,8.73-90.22,41.08-124.24,63.51,68.29,168.49,69.49,231-.02,31.68,33.5,42.69,75.44,41.16,121.05-.37,11.03-3.24,33.85-21.66,33.89Z"></path><circle class="cls-1" cx="525.37" cy="162.98" r="104.6"></circle></svg>