<svg xmlns="http://www.w3.org/2000/svg" id="Capa_1" data-name="Capa 1" viewBox="0 0 1000 1000"><defs><style>      .cls-1 {        fill: #fff;      }      .cls-2 {        fill: #36a9e1;      }    </style></defs><path class="cls-2" d="M554.99,951.41c-218.15,34.38-413.79-140.35-405.36-358.81,5.17-133.89,148.99-313.75,235.51-414.36l115.21-133.99,166.15,196.52c69.07,81.69,174.87,232.88,183.14,340.67,13.73,178.98-115.53,341.74-294.65,369.97Z"></path><path class="cls-1" d="M578.88,694.35c-.31,68.44-59.75,120.2-124.89,123.97-67.66,3.91-128.31-43.31-139.41-110.77-7.03-42.7,7.46-84.64,37.38-114.23,29.97-29.64,72.26-43.32,114.38-36.78l-.16,70.38c-35.76-11.59-72.49,9.71-81.05,44.77-8.91,36.48,16.36,72.33,52.76,77.24,36.99,5,71.53-23.21,71.56-61.95l.21-294.47,69.38-.1c1.12,59.53,48.59,106.29,108.1,106.92l-.17,69.16c-39.44-.35-75.43-12.6-107.35-36.4l-.74,162.26Z"></path></svg>