<svg xmlns="http://www.w3.org/2000/svg" id="Capa_1" data-name="Capa 1" viewBox="0 0 1000 1000"><defs><style>      .cls-1 {        fill: #fff;      }      .cls-2 {        fill: #36a9e1;      }    </style></defs><path class="cls-2" d="M554.99,969.91c-218.15,34.38-413.79-140.35-405.36-358.81,5.17-133.89,148.99-313.75,235.51-414.36l115.21-133.99,166.15,196.52c69.07,81.69,174.87,232.88,183.14,340.67,13.73,178.98-115.53,341.74-294.65,369.97Z"></path><path class="cls-1" d="M395.4,772.92l-76.97,24.36,24.72-74.4c-62.41-86.39-46.48-205.41,35.05-272.43,81.54-67.02,201.11-59.37,273.5,17.44,72.29,76.7,73.05,196.88.29,274.58-66.48,71-174.34,84.7-256.6,30.44ZM560.39,638.79l-15.34,20.27c-3.41,4.51-10.18,4.46-15.29,2.47-33.26-12.93-58.97-36.91-77.66-67.11-3.02-4.89-3.41-9.47.44-13.86l13.25-15.13c3.39-3.87,4.08-10.09,2.16-14.68l-19.45-46.43c-5.35-12.78-30.21-7.15-35.72-2.94-29.71,22.73-28.94,63.16-10.67,94.63,14.77,25.44,32.93,47.72,54.27,67.9,22.12,20.92,47.33,35.51,76.18,45,12.3,4.05,24.36,8.54,37.6,8.75,18.33.29,37.12-8.32,48.16-22.78,7.76-10.16,8.52-23.29,7.63-35.69l-49.64-24.27c-5.7-2.79-12.06-1.25-15.94,3.87Z"></path></svg>