<svg width="12" height="12" viewBox="0 0 12 12" fill="none" xmlns="http://www.w3.org/2000/svg">
<path opacity="0.5" d="M8.97656 7.76563C8.97656 7.89844 8.92188 8.03125 8.82812 8.125L8.125 8.82813C8.03125 8.92188 7.89844 8.97656 7.76562 8.97656C7.63281 8.97656 7.50781 8.92188 7.41406 8.82813L6 7.41406L4.58594 8.82813C4.49219 8.92188 4.36719 8.97656 4.23438 8.97656C4.10156 8.97656 3.96875 8.92188 3.875 8.82813L3.17188 8.125C3.07813 8.03125 3.02344 7.89844 3.02344 7.76563C3.02344 7.63281 3.07813 7.50781 3.17188 7.41406L4.58594 6L3.17188 4.58594C3.07813 4.49219 3.02344 4.36719 3.02344 4.23438C3.02344 4.10156 3.07813 3.96875 3.17188 3.875L3.875 3.17188C3.96875 3.07813 4.10156 3.02344 4.23438 3.02344C4.36719 3.02344 4.49219 3.07813 4.58594 3.17188L6 4.58594L7.41406 3.17188C7.50781 3.07813 7.63281 3.02344 7.76562 3.02344C7.89844 3.02344 8.03125 3.07813 8.125 3.17188L8.82812 3.875C8.92188 3.96875 8.97656 4.10156 8.97656 4.23438C8.97656 4.36719 8.92188 4.49219 8.82812 4.58594L7.41406 6L8.82812 7.41406C8.92188 7.50781 8.97656 7.63281 8.97656 7.76563ZM12 6C12 2.6875 9.3125 0 6 0C2.6875 0 0 2.6875 0 6C0 9.3125 2.6875 12 6 12C9.3125 12 12 9.3125 12 6Z" fill="white"/>
</svg>
