<svg xmlns="http://www.w3.org/2000/svg" id="Capa_1" data-name="Capa 1" viewBox="0 0 1000 1000"><defs><style>      .cls-1 {        fill: #1d2656;      }    </style></defs><path class="cls-1" d="M707.28,817.16c-119.51,60.31-291.42,59.71-410.37,2.38-11.65-5.61-27.04-17.9-27.09-30.97l-.66-154.2c-.38-89.82,68.08-167.06,159.45-167.02l143.39.07c88.27.04,158,74.69,158.25,162.8l.42,149.68c.04,15.55-7.66,29.32-23.4,37.27Z"></path><path class="cls-1" d="M573.99,406.11c-45.41,37.77-105.69,36.3-148.94-.56-43.89-37.41-65.58-93.7-59.62-151.51,7.22-69.98,63.87-115.73,132.83-116.5,71.99-.8,131.06,47.5,136.59,120.67,4.23,55.95-16.46,110.97-60.86,147.9Z"></path><path class="cls-1" d="M203.66,795.58c-49.9-.8-97.52-11.43-142.29-33.56-14.21-7.02-22.51-20.31-22.55-35.87l-.21-75.23c-.22-78.54,51.72-147.24,129.62-163.51,28.36-5.92,56.78-4.93,86.6-2.52-34.7,46.02-51.45,94.51-51.37,149.76l.21,160.93Z"></path><path class="cls-1" d="M961.39,724.34c.11,18.06-9.42,31.52-24.3,38.63-44.18,21.11-91,31.38-140.7,32.89l-.09-165.36c-.03-53.96-18.1-100.76-51.08-145.57,30.07-2.51,58.31-3.42,86.86,2.59,75.26,15.85,128.33,82.23,128.81,159.09l.49,77.73Z"></path><path class="cls-1" d="M280.85,431.63c-35.99,30.26-84.08,29.96-119.65,1.67-38.35-30.49-56.65-79.6-49.52-128.02,8.15-55.4,54.4-89.79,109.45-89.42,56.69.38,102.8,38.5,107.98,96.06,4.06,45.14-12.27,89.46-48.26,119.72Z"></path><path class="cls-1" d="M833.2,437.23c-38.71,27.39-86.74,20.63-119.22-9.9-31.15-29.29-46.62-70.22-43.61-112.68,4.19-58.96,50.93-98.91,109.47-98.82,55.1.08,101.31,35.32,108.59,91.14,6.44,49.4-12.86,100.27-55.23,130.25Z"></path></svg>