<svg xmlns="http://www.w3.org/2000/svg" xmlns:xlink="http://www.w3.org/1999/xlink" width="1080" zoomAndPan="magnify" viewBox="0 0 810 1012.49997" height="1350" preserveAspectRatio="xMidYMid meet"><defs><clipPath id="baecdaf1c1"><path d="M 0.199219 46.652344 L 809.800781 46.652344 L 809.800781 965.699219 L 0.199219 965.699219 Z M 0.199219 46.652344 " clip-rule="nonzero"></path></clipPath></defs><g clip-path="url(#baecdaf1c1)"><path fill="#ffffff" d="M 299.636719 360.304688 C 299.636719 353.996094 304.761719 348.867188 311.070312 348.867188 L 346.5625 348.867188 C 352.871094 348.867188 357.996094 353.996094 357.996094 360.304688 C 357.996094 366.613281 352.871094 371.742188 346.5625 371.742188 L 311.070312 371.742188 C 304.761719 371.742188 299.636719 366.613281 299.636719 360.304688 Z M 311.070312 315.378906 L 523.363281 315.378906 C 529.671875 315.378906 534.800781 310.253906 534.800781 303.945312 C 534.800781 297.636719 529.671875 292.507812 523.363281 292.507812 L 311.070312 292.507812 C 304.761719 292.507812 299.636719 297.636719 299.636719 303.945312 C 299.636719 310.253906 304.761719 315.378906 311.070312 315.378906 Z M 192.804688 258.65625 C 233.308594 258.65625 266.261719 291.613281 266.261719 332.113281 C 266.261719 372.617188 233.308594 405.574219 192.804688 405.574219 C 152.300781 405.574219 119.347656 372.617188 119.347656 332.113281 C 119.347656 291.613281 152.300781 258.65625 192.804688 258.65625 Z M 192.804688 281.53125 C 164.902344 281.53125 142.21875 304.230469 142.21875 332.113281 C 142.21875 360 164.917969 382.699219 192.804688 382.699219 C 220.6875 382.699219 243.390625 360 243.390625 332.113281 C 243.390625 304.230469 220.6875 281.53125 192.804688 281.53125 Z M 179.597656 322.128906 C 175.136719 317.667969 167.894531 317.667969 163.414062 322.128906 C 158.953125 326.585938 158.953125 333.832031 163.414062 338.308594 L 178.871094 353.765625 C 181.023438 355.902344 183.921875 357.121094 186.953125 357.121094 C 189.984375 357.121094 192.898438 355.921875 195.035156 353.765625 L 222.15625 326.644531 C 226.617188 322.183594 226.617188 314.941406 222.15625 310.460938 C 217.695312 306.003906 210.453125 306.003906 205.992188 310.460938 L 186.953125 329.503906 L 179.578125 322.128906 Z M 266.28125 519.1875 C 266.28125 559.691406 233.324219 592.648438 192.824219 592.648438 C 152.320312 592.648438 119.367188 559.691406 119.367188 519.1875 C 119.367188 478.6875 152.320312 445.730469 192.824219 445.730469 C 233.324219 445.730469 266.28125 478.6875 266.28125 519.1875 Z M 243.410156 519.1875 C 243.410156 491.285156 220.707031 468.605469 192.824219 468.605469 C 164.9375 468.605469 142.238281 491.304688 142.238281 519.1875 C 142.238281 547.074219 164.9375 569.773438 192.824219 569.773438 C 220.707031 569.773438 243.410156 547.074219 243.410156 519.1875 Z M 206.011719 497.554688 L 186.972656 516.597656 L 179.597656 509.222656 C 175.136719 504.761719 167.894531 504.761719 163.433594 509.222656 C 158.972656 513.679688 158.972656 520.925781 163.433594 525.402344 L 178.890625 540.859375 C 181.121094 543.089844 184.054688 544.214844 186.972656 544.214844 C 189.886719 544.214844 192.824219 543.089844 195.054688 540.859375 L 222.175781 513.738281 C 226.636719 509.277344 226.636719 502.035156 222.175781 497.554688 C 217.714844 493.097656 210.472656 493.097656 206.011719 497.554688 Z M 266.28125 706.265625 C 266.28125 746.765625 233.324219 779.722656 192.824219 779.722656 C 152.320312 779.722656 119.367188 746.765625 119.367188 706.265625 C 119.367188 665.761719 152.320312 632.804688 192.824219 632.804688 C 233.324219 632.804688 266.28125 665.761719 266.28125 706.265625 Z M 243.410156 706.265625 C 243.410156 678.359375 220.707031 655.679688 192.824219 655.679688 C 164.9375 655.679688 142.238281 678.378906 142.238281 706.265625 C 142.238281 734.148438 164.9375 756.847656 192.824219 756.847656 C 220.707031 756.847656 243.410156 734.148438 243.410156 706.265625 Z M 206.011719 684.628906 L 186.972656 703.671875 L 179.597656 696.296875 C 175.136719 691.835938 167.894531 691.835938 163.414062 696.296875 C 158.953125 700.753906 158.953125 708 163.414062 712.476562 L 178.871094 727.933594 C 181.023438 730.070312 183.921875 731.289062 186.953125 731.289062 C 189.984375 731.289062 192.898438 730.089844 195.035156 727.933594 L 222.15625 700.8125 C 226.617188 696.351562 226.617188 689.109375 222.15625 684.628906 C 217.695312 680.171875 210.453125 680.171875 205.976562 684.628906 Z M 653.523438 710.992188 L 653.523438 742.324219 C 661.546875 743.925781 667.609375 751.015625 667.609375 759.480469 L 667.609375 911.523438 C 667.609375 941.199219 643.460938 965.328125 613.804688 965.328125 C 584.144531 965.328125 559.996094 941.179688 559.996094 911.523438 L 559.996094 906.203125 L 65.503906 906.203125 C 29.480469 906.203125 0.183594 876.910156 0.183594 840.886719 L 0.183594 176.738281 C 0.183594 140.714844 29.480469 111.417969 65.503906 111.417969 L 195.074219 111.417969 L 195.074219 107.128906 C 195.074219 100.820312 200.199219 95.695312 206.507812 95.695312 L 267.671875 95.695312 C 273.027344 67.808594 297.617188 46.652344 327.0625 46.652344 C 356.511719 46.652344 381.078125 67.789062 386.453125 95.695312 L 447.617188 95.695312 C 453.925781 95.695312 459.054688 100.820312 459.054688 107.128906 L 459.054688 111.417969 L 588.625 111.417969 C 624.648438 111.417969 653.941406 140.714844 653.941406 176.738281 L 653.941406 327.503906 C 742.726562 346.085938 809.625 424.976562 809.625 519.1875 C 809.625 613.402344 742.515625 692.558594 653.523438 710.972656 Z M 613.785156 346.21875 C 518.40625 346.21875 440.8125 423.8125 440.8125 519.1875 C 440.8125 614.566406 518.40625 692.160156 613.785156 692.160156 C 709.160156 692.160156 786.753906 614.566406 786.753906 519.1875 C 786.753906 423.8125 709.160156 346.21875 613.785156 346.21875 Z M 459.035156 134.289062 L 459.035156 168.867188 L 585.042969 168.867188 C 591.351562 168.867188 596.476562 173.992188 596.476562 180.300781 L 596.476562 324.128906 C 602.175781 323.632812 607.933594 323.367188 613.765625 323.367188 C 619.597656 323.367188 625.351562 323.632812 631.050781 324.148438 L 631.050781 176.757812 C 631.050781 153.351562 612.011719 134.308594 588.605469 134.308594 L 459.035156 134.308594 Z M 217.964844 184.589844 L 436.183594 184.589844 L 436.183594 118.546875 L 376.105469 118.546875 C 369.796875 118.546875 364.667969 113.417969 364.667969 107.109375 C 364.667969 86.375 347.800781 69.503906 327.0625 69.503906 C 306.324219 69.503906 289.457031 86.375 289.457031 107.109375 C 289.457031 113.417969 284.332031 118.546875 278.023438 118.546875 L 217.945312 118.546875 L 217.945312 184.589844 Z M 206.527344 207.460938 C 200.21875 207.460938 195.089844 202.335938 195.089844 196.027344 L 195.089844 191.738281 L 80.523438 191.738281 L 80.523438 825.902344 L 559.976562 825.902344 L 559.976562 759.5 C 559.976562 751.015625 566.039062 743.925781 574.0625 742.34375 L 574.0625 711.011719 C 553.628906 706.777344 534.359375 699.363281 516.789062 689.300781 C 516.023438 689.453125 515.242188 689.546875 514.421875 689.546875 L 311.070312 689.546875 C 304.761719 689.546875 299.636719 684.421875 299.636719 678.113281 C 299.636719 671.804688 304.761719 666.675781 311.070312 666.675781 L 485.050781 666.675781 C 453.449219 639.039062 430.769531 601.453125 421.984375 558.835938 L 400.023438 558.835938 C 393.714844 558.835938 388.589844 553.707031 388.589844 547.398438 C 388.589844 541.089844 393.714844 535.960938 400.023438 535.960938 L 418.667969 535.960938 C 418.191406 530.433594 417.941406 524.851562 417.941406 519.207031 C 417.941406 513.566406 418.191406 507.980469 418.667969 502.472656 L 311.070312 502.472656 C 304.761719 502.472656 299.636719 497.347656 299.636719 491.039062 C 299.636719 484.730469 304.761719 479.601562 311.070312 479.601562 L 421.964844 479.601562 C 430.75 436.984375 453.433594 399.398438 485.03125 371.761719 L 400.007812 371.761719 C 393.699219 371.761719 388.570312 366.632812 388.570312 360.324219 C 388.570312 354.015625 393.699219 348.886719 400.007812 348.886719 L 515.261719 348.886719 C 515.835938 348.886719 516.40625 348.945312 516.957031 349.019531 C 534.359375 339.089844 553.421875 331.734375 573.625 327.519531 L 573.625 191.757812 L 459.054688 191.757812 L 459.054688 196.046875 C 459.054688 202.355469 453.925781 207.480469 447.617188 207.480469 L 206.527344 207.480469 Z M 559.957031 883.351562 L 559.957031 848.777344 L 69.066406 848.777344 C 62.757812 848.777344 57.628906 843.648438 57.628906 837.339844 L 57.628906 180.300781 C 57.628906 173.992188 62.757812 168.867188 69.066406 168.867188 L 195.074219 168.867188 L 195.074219 134.289062 L 65.503906 134.289062 C 42.097656 134.289062 23.054688 153.332031 23.054688 176.738281 L 23.054688 840.902344 C 23.054688 864.308594 42.097656 883.351562 65.503906 883.351562 Z M 644.71875 764.855469 L 582.832031 764.855469 L 582.832031 911.539062 C 582.832031 928.597656 596.707031 942.476562 613.765625 942.476562 C 630.824219 942.476562 644.699219 928.597656 644.699219 911.539062 L 644.699219 764.855469 Z M 630.652344 714.308594 C 625.085938 714.785156 619.464844 715.050781 613.785156 715.050781 C 608.105469 715.050781 602.480469 714.785156 596.914062 714.308594 L 596.914062 741.980469 L 630.652344 741.980469 Z M 596.648438 510.878906 L 656.898438 450.628906 C 660.367188 447.160156 664.980469 445.253906 669.898438 445.253906 C 674.8125 445.253906 679.445312 447.160156 682.914062 450.628906 L 705.214844 472.929688 C 712.382812 480.097656 712.382812 491.78125 705.214844 498.949219 L 621.160156 583.003906 C 614.621094 589.539062 605.910156 593.140625 596.648438 593.140625 C 587.386719 593.140625 578.675781 589.539062 572.136719 583.003906 L 524.277344 535.144531 C 520.808594 531.671875 518.902344 527.0625 518.902344 522.144531 C 518.902344 517.226562 520.808594 512.59375 524.277344 509.125 L 546.578125 486.824219 C 553.746094 479.660156 565.429688 479.660156 572.59375 486.824219 Z M 604.730469 535.144531 C 600.269531 539.601562 593.027344 539.601562 588.566406 535.144531 L 559.597656 506.171875 L 543.625 522.144531 L 588.320312 566.839844 C 590.53125 569.050781 593.503906 570.269531 596.667969 570.269531 C 599.832031 570.269531 602.785156 569.050781 605.015625 566.839844 L 685.90625 485.949219 L 669.933594 469.976562 L 604.769531 535.144531 Z M 613.785156 370.808594 C 695.609375 370.808594 762.167969 437.363281 762.167969 519.1875 C 762.167969 601.015625 695.609375 667.570312 613.785156 667.570312 C 531.957031 667.570312 465.402344 601.015625 465.402344 519.1875 C 465.402344 437.363281 531.957031 370.808594 613.785156 370.808594 Z M 613.785156 393.679688 C 544.578125 393.679688 488.273438 449.980469 488.273438 519.1875 C 488.273438 588.394531 544.578125 644.699219 613.785156 644.699219 C 682.992188 644.699219 739.292969 588.394531 739.292969 519.1875 C 739.292969 449.980469 682.992188 393.679688 613.785156 393.679688 Z M 311.070312 745.890625 L 346.5625 745.890625 C 352.871094 745.890625 357.996094 740.761719 357.996094 734.453125 C 357.996094 728.144531 352.871094 723.019531 346.5625 723.019531 L 311.070312 723.019531 C 304.761719 723.019531 299.636719 728.144531 299.636719 734.453125 C 299.636719 740.761719 304.761719 745.890625 311.070312 745.890625 Z M 400.023438 745.890625 L 523.363281 745.890625 C 529.671875 745.890625 534.800781 740.761719 534.800781 734.453125 C 534.800781 728.144531 529.671875 723.019531 523.363281 723.019531 L 400.023438 723.019531 C 393.714844 723.019531 388.589844 728.144531 388.589844 734.453125 C 388.589844 740.761719 393.714844 745.890625 400.023438 745.890625 Z M 311.070312 558.816406 L 346.5625 558.816406 C 352.871094 558.816406 357.996094 553.6875 357.996094 547.378906 C 357.996094 541.070312 352.871094 535.941406 346.5625 535.941406 L 311.070312 535.941406 C 304.761719 535.941406 299.636719 541.070312 299.636719 547.378906 C 299.636719 553.6875 304.761719 558.816406 311.070312 558.816406 Z M 311.070312 558.816406 " fill-opacity="1" fill-rule="nonzero"></path></g></svg>