<svg xmlns="http://www.w3.org/2000/svg" xmlns:xlink="http://www.w3.org/1999/xlink" width="1080" zoomAndPan="magnify" viewBox="0 0 810 1012.49997" height="1350" preserveAspectRatio="xMidYMid meet"><defs><clipPath id="885158bbbc"><path d="M 0.199219 101.199219 L 809.800781 101.199219 L 809.800781 910.800781 L 0.199219 910.800781 Z M 0.199219 101.199219 " clip-rule="nonzero"></path></clipPath></defs><g clip-path="url(#885158bbbc)"><path fill="#ffffff" d="M 360.046875 406.402344 L 394.664062 479.828125 C 396.554688 483.835938 400.589844 486.394531 405.023438 486.394531 C 409.457031 486.394531 413.492188 483.835938 415.382812 479.824219 L 450 406.402344 C 515.578125 386.683594 560.917969 326.050781 560.917969 257.09375 C 560.917969 171.132812 490.984375 101.199219 405.023438 101.199219 C 319.0625 101.199219 249.128906 171.132812 249.128906 257.09375 C 249.128906 326.050781 294.46875 386.683594 360.046875 406.402344 Z M 405.023438 124.105469 C 478.355469 124.105469 538.011719 183.761719 538.011719 257.09375 C 538.011719 317.46875 497.277344 370.363281 438.949219 385.722656 C 435.675781 386.585938 432.949219 388.851562 431.507812 391.914062 L 405.023438 448.085938 L 378.539062 391.914062 C 377.097656 388.851562 374.371094 386.585938 371.097656 385.722656 C 312.769531 370.363281 272.035156 317.46875 272.035156 257.09375 C 272.035156 183.761719 331.691406 124.105469 405.023438 124.105469 Z M 405.023438 358.492188 C 461.726562 358.492188 507.859375 312.359375 507.859375 255.652344 C 507.859375 198.949219 461.726562 152.816406 405.023438 152.816406 C 348.292969 152.816406 302.140625 198.949219 302.140625 255.652344 C 302.140625 312.359375 348.292969 358.492188 405.023438 358.492188 Z M 405.023438 175.722656 C 449.097656 175.722656 484.957031 211.578125 484.957031 255.652344 C 484.957031 299.730469 449.097656 335.585938 405.023438 335.585938 C 360.921875 335.585938 325.042969 299.730469 325.042969 255.652344 C 325.042969 211.578125 360.921875 175.722656 405.023438 175.722656 Z M 357.054688 255.261719 C 360.734375 250.117188 367.886719 248.933594 373.03125 252.613281 L 395.414062 268.625 L 434.714844 219.890625 C 438.6875 214.96875 445.894531 214.195312 450.820312 218.167969 C 455.742188 222.136719 456.515625 229.347656 452.546875 234.273438 L 406.457031 291.417969 C 404.203125 294.210938 400.886719 295.679688 397.535156 295.679688 C 395.222656 295.679688 392.894531 294.980469 390.878906 293.542969 L 359.707031 271.242188 C 354.5625 267.5625 353.375 260.40625 357.054688 255.261719 Z M 96.378906 907.582031 C 98.535156 909.664062 101.398438 910.800781 104.339844 910.800781 C 105.066406 910.800781 105.800781 910.730469 106.527344 910.589844 C 110.199219 909.875 113.289062 907.410156 114.804688 903.992188 C 121.527344 888.847656 136.71875 871.539062 159.949219 852.546875 C 202.589844 822.570312 216.300781 788.808594 229.34375 750.1875 C 233.664062 750.953125 238.046875 751.351562 242.460938 751.351562 L 567.539062 751.351562 C 571.980469 751.351562 576.371094 750.953125 580.6875 750.1875 C 593.707031 788.804688 607.449219 822.570312 650.050781 852.542969 C 673.351562 871.59375 688.53125 888.890625 695.183594 903.96875 C 696.695312 907.394531 699.785156 909.867188 703.460938 910.585938 C 704.191406 910.730469 704.929688 910.800781 705.660156 910.800781 C 708.601562 910.800781 711.464844 909.667969 713.621094 907.582031 L 806.308594 818.007812 C 810.5625 813.898438 810.984375 807.222656 807.28125 802.609375 C 787.59375 778.070312 786.710938 741.695312 785.777344 703.1875 C 784.492188 650.1875 783.15625 595.378906 729.894531 569.589844 L 642.5 525.023438 L 642.5 513.875 C 642.5 507.550781 637.371094 502.421875 631.046875 502.421875 L 561.777344 502.421875 C 555.453125 502.421875 550.324219 507.550781 550.324219 513.875 L 550.324219 527.488281 C 550.324219 545.277344 535.828125 559.753906 518.011719 559.753906 C 500.222656 559.753906 485.746094 545.277344 485.746094 527.488281 L 485.746094 513.875 C 485.746094 507.550781 480.621094 502.421875 474.292969 502.421875 L 347.160156 502.421875 L 347.160156 500.261719 C 347.160156 469.839844 322.410156 445.089844 291.988281 445.089844 C 261.566406 445.089844 236.816406 469.839844 236.816406 500.261719 L 236.816406 502.421875 L 178.953125 502.421875 C 172.628906 502.421875 167.5 507.550781 167.5 513.875 L 167.5 525.023438 L 80.105469 569.589844 C 26.839844 595.382812 25.507812 650.1875 24.222656 703.1875 C 23.289062 741.695312 22.40625 778.070312 2.71875 802.605469 C -0.984375 807.222656 -0.5625 813.898438 3.695312 818.007812 Z M 642.5 550.734375 L 719.601562 590.046875 C 719.675781 590.085938 719.75 590.125 719.824219 590.160156 C 760.601562 609.84375 761.65625 653.359375 762.878906 703.742188 C 763.777344 740.6875 764.699219 778.777344 783.316406 808.375 L 708.453125 880.722656 C 698.941406 866.183594 684.332031 850.949219 664.210938 834.535156 C 663.996094 834.359375 663.773438 834.191406 663.542969 834.03125 C 623.273438 805.820312 612.621094 773.734375 599.136719 733.113281 C 598.324219 730.664062 597.5 728.191406 596.667969 725.695312 C 593.824219 709.609375 584.027344 703.910156 575.367188 698.871094 C 565.917969 693.371094 554.152344 686.527344 540.613281 662.140625 C 540.421875 661.792969 540.210938 661.457031 539.980469 661.128906 C 535.378906 654.5625 539.625 635.871094 550.109375 626.472656 C 557.382812 619.949219 564.839844 620.417969 573.558594 627.941406 L 622.644531 677.132812 C 622.84375 677.351562 623.054688 677.5625 623.273438 677.765625 L 636.460938 690.984375 C 636.511719 691.035156 636.566406 691.085938 636.617188 691.136719 C 649.96875 704.011719 662.304688 702.324219 668.472656 700.171875 C 685.734375 694.140625 697.824219 671.246094 702.519531 635.703125 C 703.125 631.109375 700.90625 626.601562 696.890625 624.285156 L 642.5 592.886719 Z M 678.652344 640.203125 C 674.207031 665.191406 665.859375 676.820312 660.917969 678.546875 C 658.296875 679.460938 654.957031 676.988281 652.589844 674.71875 L 642.5 664.605469 L 642.5 619.332031 Z M 518.011719 582.65625 C 548.460938 582.65625 573.230469 557.910156 573.230469 527.488281 L 573.230469 525.328125 L 619.59375 525.328125 L 619.59375 641.652344 L 589.488281 611.480469 C 589.3125 611.300781 589.125 611.128906 588.933594 610.960938 C 571.261719 595.457031 551.03125 594.878906 534.820312 609.417969 C 518.21875 624.300781 508.652344 655.429688 520.847656 673.726562 C 537.355469 703.25 553.285156 712.519531 563.847656 718.667969 C 570.675781 722.640625 572.746094 723.980469 573.769531 728.035156 C 571.710938 728.28125 569.636719 728.445312 567.539062 728.445312 L 416.476562 728.445312 L 416.476562 670.628906 C 416.476562 664.304688 411.347656 659.175781 405.023438 659.175781 L 391.410156 659.175781 C 373.621094 659.175781 359.144531 644.679688 359.144531 626.863281 C 359.144531 609.070312 373.621094 594.597656 391.410156 594.597656 L 405.023438 594.597656 C 411.347656 594.597656 416.476562 589.46875 416.476562 583.144531 L 416.476562 525.328125 L 462.84375 525.328125 L 462.84375 527.488281 C 462.84375 557.910156 487.589844 582.65625 518.011719 582.65625 Z M 248.269531 525.328125 C 254.59375 525.328125 259.722656 520.199219 259.722656 513.875 L 259.722656 500.261719 C 259.722656 482.46875 274.195312 467.996094 291.988281 467.996094 C 309.78125 467.996094 324.253906 482.46875 324.253906 500.261719 L 324.253906 513.875 C 324.253906 520.199219 329.382812 525.328125 335.707031 525.328125 L 393.570312 525.328125 L 393.570312 571.691406 L 391.410156 571.691406 C 360.988281 571.691406 336.242188 596.441406 336.242188 626.863281 C 336.242188 657.3125 360.988281 682.082031 391.410156 682.082031 L 393.570312 682.082031 L 393.570312 728.445312 L 242.460938 728.445312 C 240.382812 728.445312 238.316406 728.28125 236.265625 728.035156 C 237.25 723.984375 239.21875 722.714844 246.179688 718.664062 C 256.742188 712.519531 272.671875 703.246094 289.152344 673.726562 C 301.363281 655.445312 291.816406 624.324219 275.21875 609.429688 C 259 594.875 238.769531 595.453125 221.105469 610.964844 C 220.917969 611.132812 220.734375 611.300781 220.558594 611.480469 L 190.40625 641.699219 L 190.40625 525.328125 Z M 167.5 664.65625 L 157.457031 674.722656 C 155.085938 676.992188 151.746094 679.46875 149.113281 678.542969 C 144.164062 676.8125 135.808594 665.179688 131.386719 640.207031 L 167.5 619.339844 Z M 47.121094 703.742188 C 48.34375 653.359375 49.398438 609.84375 90.175781 590.160156 C 90.25 590.125 90.324219 590.085938 90.398438 590.046875 L 167.5 550.734375 L 167.5 592.890625 L 113.152344 624.289062 C 109.144531 626.601562 106.921875 631.105469 107.523438 635.691406 C 112.183594 671.222656 124.265625 694.117188 141.546875 700.164062 C 147.722656 702.324219 160.070312 704.023438 173.429688 691.136719 C 173.480469 691.085938 173.535156 691.035156 173.585938 690.984375 L 236.488281 627.941406 C 245.199219 620.414062 252.648438 619.953125 259.917969 626.476562 C 270.402344 635.882812 274.636719 654.558594 270.027344 661.117188 C 269.792969 661.449219 269.578125 661.792969 269.382812 662.148438 C 255.867188 686.523438 244.109375 693.371094 234.660156 698.867188 C 225.996094 703.910156 216.199219 709.609375 213.378906 725.699219 C 212.625 727.949219 211.882812 730.167969 211.148438 732.382812 C 211.101562 732.503906 211.042969 732.621094 211 732.746094 C 210.941406 732.921875 210.902344 733.097656 210.851562 733.269531 C 210.839844 733.300781 210.832031 733.328125 210.824219 733.355469 C 197.339844 773.875 186.6875 805.878906 146.460938 834.027344 C 146.230469 834.1875 146.007812 834.359375 145.789062 834.535156 C 125.699219 850.921875 111.097656 866.160156 101.558594 880.734375 L 26.683594 808.375 C 45.300781 778.777344 46.226562 740.6875 47.121094 703.742188 Z M 47.121094 703.742188 " fill-opacity="1" fill-rule="nonzero"></path></g></svg>